<svg width="144" height="77" fill="none" xmlns="http://www.w3.org/2000/svg"><path d="M63.9 54.085a8.774 8.774 0 01-2.635-.404 6.492 6.492 0 01-2.244-1.196l.816-1.246a8.25 8.25 0 001.955 1.112 5.66 5.66 0 002.074.37c.816 0 1.445-.151 1.92-.471.477-.32.715-.758.715-1.348 0-.27-.068-.488-.187-.69a1.67 1.67 0 00-.578-.489 5.184 5.184 0 00-.986-.387 22.674 22.674 0 00-1.377-.354 35.946 35.946 0 01-1.734-.488c-.476-.151-.884-.337-1.19-.556-.306-.219-.544-.471-.68-.758a2.616 2.616 0 01-.22-1.094c0-.556.101-1.044.322-1.465.221-.422.527-.792.901-1.078a4.244 4.244 0 011.36-.657 5.86 5.86 0 011.666-.219 6.74 6.74 0 012.346.404c.73.27 1.343.623 1.836 1.061l-.85 1.112a5.336 5.336 0 00-1.581-.927 4.974 4.974 0 00-1.785-.303c-.68 0-1.258.152-1.734.438-.476.287-.714.758-.714 1.381 0 .253.051.472.136.64.085.169.238.32.459.438.22.135.493.236.816.337.34.1.73.202 1.207.32.73.168 1.377.337 1.92.522a5.36 5.36 0 011.36.623c.358.236.63.522.817.842.17.32.272.724.272 1.179 0 1.027-.391 1.852-1.19 2.442-.782.623-1.853.91-3.213.91zm12.307.438a5.776 5.776 0 01-2.38-.488 5.733 5.733 0 01-1.835-1.297 5.854 5.854 0 01-1.19-1.886 6.267 6.267 0 01-.425-2.257c0-.808.136-1.566.425-2.273a6.039 6.039 0 011.19-1.886 5.733 5.733 0 011.835-1.297 5.674 5.674 0 012.346-.489c.85 0 1.65.169 2.363.489.714.32 1.343.758 1.853 1.297.51.538.901 1.162 1.19 1.886.289.707.425 1.482.425 2.273 0 .792-.136 1.533-.425 2.257a5.75 5.75 0 01-1.19 1.886 5.808 5.808 0 01-1.853 1.297c-.68.32-1.462.488-2.329.488zm-3.825-5.894c0 .606.102 1.145.306 1.667.204.505.476.96.816 1.33.34.388.748.674 1.224.893a3.47 3.47 0 001.496.337c.527 0 1.02-.118 1.496-.337a3.988 3.988 0 001.224-.91 4.24 4.24 0 00.833-1.363 4.54 4.54 0 00.306-1.668 4.45 4.45 0 00-.306-1.65 4.278 4.278 0 00-.833-1.364 3.99 3.99 0 00-1.224-.91 3.473 3.473 0 00-1.496-.336c-.527 0-1.02.118-1.496.337a4.045 4.045 0 00-1.224.926 4.56 4.56 0 00-.816 1.364 4.565 4.565 0 00-.306 1.684zm12.325-11.604h2.057v13.776c0 .455.119.792.357 1.061.238.253.578.388 1.02.388.17 0 .374-.034.612-.084s.459-.118.663-.202l.323 1.65c-.34.135-.748.253-1.224.354a7.301 7.301 0 01-1.241.134c-.8 0-1.428-.219-1.887-.673-.46-.455-.697-1.078-.697-1.87V37.025h.017zm40.407 17.549a5.777 5.777 0 01-2.38-.489 5.733 5.733 0 01-1.836-1.297 5.854 5.854 0 01-1.19-1.886 6.266 6.266 0 01-.425-2.256c0-.809.136-1.567.425-2.274a6.042 6.042 0 011.19-1.886 5.735 5.735 0 011.836-1.297 5.675 5.675 0 012.346-.488c.85 0 1.649.168 2.363.488.714.32 1.343.758 1.853 1.297.51.539.901 1.162 1.19 1.886.289.707.425 1.482.425 2.274 0 .791-.136 1.532-.425 2.256a5.748 5.748 0 01-1.19 1.886 5.807 5.807 0 01-1.853 1.297c-.663.337-1.462.489-2.329.489zm-3.825-5.895c0 .607.102 1.145.306 1.668.204.505.476.96.816 1.33.34.387.748.674 1.224.893.459.218.969.336 1.496.336a3.53 3.53 0 001.496-.336 3.99 3.99 0 001.224-.91c.357-.387.629-.842.833-1.364a4.54 4.54 0 00.306-1.667c0-.59-.102-1.129-.306-1.65a4.279 4.279 0 00-.833-1.365 3.99 3.99 0 00-1.224-.91 3.472 3.472 0 00-1.496-.336c-.527 0-1.02.118-1.496.337a4.047 4.047 0 00-1.224.926 4.56 4.56 0 00-.816 1.364 4.695 4.695 0 00-.306 1.684zM86.526 20.487c0-.791.136-1.532.408-2.223a5.252 5.252 0 011.173-1.819 5.923 5.923 0 011.802-1.246c.697-.303 1.478-.455 2.345-.455 1.122 0 2.091.253 2.907.741a4.677 4.677 0 011.836 1.97l-1.853.573a3.125 3.125 0 00-1.207-1.229 3.485 3.485 0 00-1.733-.438c-.51 0-1.003.101-1.462.303a3.52 3.52 0 00-1.19.86c-.323.37-.595.808-.782 1.296a4.675 4.675 0 00-.29 1.65 4.451 4.451 0 001.123 2.981c.34.37.73.674 1.19.893.459.219.934.32 1.461.32a3.754 3.754 0 001.87-.505c.272-.152.493-.337.697-.54a1.79 1.79 0 00.425-.673l1.853.556c-.17.42-.408.791-.73 1.128-.307.337-.68.64-1.089.876a6.038 6.038 0 01-1.394.572 6.333 6.333 0 01-1.614.22c-.85 0-1.632-.152-2.33-.472a6.046 6.046 0 01-1.818-1.263 5.395 5.395 0 01-1.173-1.853 6.155 6.155 0 01-.425-2.223zm30.615 5.507a5.729 5.729 0 01-2.244-.437 5.036 5.036 0 01-1.733-1.196 5.24 5.24 0 01-1.122-1.785 5.7 5.7 0 01-.408-2.14c0-.757.136-1.464.408-2.138a5.377 5.377 0 011.139-1.768 5.274 5.274 0 011.75-1.196 5.729 5.729 0 012.244-.438c.816 0 1.564.152 2.227.455a5.685 5.685 0 011.717 1.196 5.175 5.175 0 011.088 1.751 5.68 5.68 0 01.391 2.072c0 .151 0 .286-.017.404 0 .118-.017.219-.034.286h-8.976a4.05 4.05 0 00.374 1.465c.204.438.476.809.816 1.129.34.32.714.555 1.122.74a3.3 3.3 0 001.343.27c.34 0 .663-.05.969-.135a3.72 3.72 0 00.884-.353c.272-.152.527-.337.731-.556a2.36 2.36 0 00.493-.741l1.581.438a4.26 4.26 0 01-.731 1.094c-.306.337-.663.607-1.071.86a6.58 6.58 0 01-1.36.572c-.527.084-1.037.151-1.581.151zm3.706-6.281a3.66 3.66 0 00-.391-1.415 3.564 3.564 0 00-.816-1.095 3.513 3.513 0 00-1.122-.707 3.68 3.68 0 00-1.36-.253c-.476 0-.935.085-1.377.253a3.288 3.288 0 00-1.122.724 3.4 3.4 0 00-.782 1.095 3.772 3.772 0 00-.357 1.398h7.327zM62.455 9.423h-1.819v16.69h1.819V9.422zm12.409 5.86h-1.819v10.83h1.82v-10.83zm5.346.005v1.347h4.556v-1.347H80.21zm54.729 2.152a3.337 3.337 0 00-1.325-1.904c-.68-.471-1.666-.707-2.992-.707-1.037 0-1.853.168-2.448.522a2.893 2.893 0 00-1.037 1.078v-1.146h-1.836v10.83h1.819v-5.609c0-.96.068-1.718.221-2.273.136-.556.442-.977.884-1.28.442-.303 1.122-.438 2.023-.438.952 0 1.649.151 2.108.471.459.32.765.741.884 1.297.136.54.187 1.28.187 2.223v5.541h1.801v-5.54c.034-1.23-.085-2.258-.289-3.066z" fill="#333"/><path d="M135.33 19.342h-1.818v6.77h1.818v-6.77zm-70.138.91h-2.278l4.556-4.969h2.278l-4.556 4.969zm3.178 5.86h2.279l-5.457-5.86h-2.278l5.457 5.86zm5.576-13.977c.63 0 1.14-.505 1.14-1.128 0-.624-.51-1.129-1.14-1.129-.629 0-1.139.505-1.139 1.129 0 .623.51 1.128 1.14 1.128zm9.452 12.175s0 .455-.459.455c-1.258 0-2.278-.556-2.278-1.802V12.134h-1.819v10.829c0 1.751 1.428 3.166 3.196 3.166h.952c.986 0 1.768-.792 1.768-1.751v-.068h-1.36zm27.335 20.31v-1.346h-4.097v-3.167h-1.819v10.83c0 1.75 1.428 3.166 3.196 3.166h.952c.986 0 1.768-.792 1.768-1.752v-.05h-1.36s0 .454-.459.454c-1.258 0-2.278-.556-2.278-1.802v-6.315h4.097v-.017zm5.269-1.38h-1.819v10.829h1.819v-10.83zm-.901-3.167c.629 0 1.139-.505 1.139-1.128 0-.623-.51-1.128-1.139-1.128s-1.139.505-1.139 1.128c0 .623.51 1.128 1.139 1.128zm-6.119-22.634a3.334 3.334 0 00-1.326-1.903c-.68-.472-1.666-.707-2.992-.707-1.037 0-1.853.168-2.448.522a2.893 2.893 0 00-1.037 1.077V9.423H99.36v16.69h1.802v-5.609c0-.96.068-1.718.221-2.273.136-.556.442-.977.884-1.28.442-.303 1.122-.438 2.023-.438.952 0 1.649.151 2.108.471.459.32.765.741.884 1.297.136.539.187 1.28.187 2.223v5.54h1.802v-5.54c.017-1.23-.085-2.257-.289-3.065zm34.695 28.024a3.334 3.334 0 00-1.326-1.903c-.68-.472-1.666-.708-2.992-.708-1.037 0-1.853.169-2.448.523a2.893 2.893 0 00-1.037 1.078v-1.146h-1.819v10.83h1.819v-5.609c0-.96.068-1.718.221-2.273.136-.556.442-.977.884-1.28.442-.304 1.122-.438 2.023-.438.952 0 1.649.151 2.108.471.459.32.765.741.884 1.297.136.539.187 1.28.187 2.223v5.54H144v-5.54c0-1.246-.102-2.273-.323-3.065zm-51.83 6.113a3.334 3.334 0 001.326 1.903c.68.472 1.665.707 2.991.707 1.037 0 1.853-.168 2.448-.522a2.892 2.892 0 001.037-1.078v1.146h1.819v-10.83h-1.819v5.609c0 .96-.068 1.718-.22 2.273a2.113 2.113 0 01-.885 1.28c-.442.304-1.122.438-2.023.438-.952 0-1.649-.151-2.108-.471-.459-.32-.765-.741-.883-1.297-.136-.539-.188-1.28-.188-2.223v-5.54h-1.801v5.54c0 1.246.102 2.257.306 3.065zM12.681 31.805V.395H0v53.792h12.681V31.805z" fill="#333"/><path d="M25.958 54.187L13.276 76.653H28.78l12.698-22.466-14.602-20.395 12.613-18.997H23.97l-11.29 17.01v3.84l13.277 18.542z" fill="#333"/></svg>